:SAMPLES-PER-SECOND 30
:FRAME-RANGE 1-1086
:FULLY-SPECIFIED
:DEGREES
204
root  -50.5593 38.0615 -60.6524 -164.074 -65.6376 171.353
RightUpLeg  -33.4256 8.37483 -15.9934
RightLeg  43.1587 -15.3155 -15.1171
RightFoot  0.724915 -0.914192 8.68067
RightToes  -5.8209e-011 0 -3.6325e-017
Spine  17.1409 -1.99684 -5.82313
Spine1  2.08313 -3.6168 4.30762
HEad  -8.37015 -0.47631 -2.07852
LeftShoulder1  2.15114 -6.54746 -14.5267
LeftArm  -37.6006 -61.8275 -19.5
LeftForeArm  7.83464 -6.00824 -13.0997
LeftHand  0.501813 -0.315514 -10.2262
RightShoulder  10.2327 27.124 27.0852
RightArm  -27.2085 23.686 8.57988
RightForeArm  -42.6629 36.8234 10.3703
RightHand  0.0736807 -4.86426 26.887
LeftUpLeg  -28.3967 15.8568 -1.48725
LeftLeg  26.3876 -4.81493 -2.24591
LeftFoot  -4.53113 0.317378 -4.87602
LeftToes  5.72949e-011 5.22586e-011 2.45399e-011
205
root  -50.8811 38.1569 -59.9791 -164.193 -64.9858 172.325
RightUpLeg  -36.2273 7.00539 -14.9476
RightLeg  44.8988 -17.0505 -17.6354
RightFoot  4.97806 -0.503838 3.74989
RightToes  -5.8209e-011 0 -3.6325e-017
Spine  17.8219 -2.01349 -5.58772
Spine1  1.95383 -3.61617 4.53246
HEad  -9.41814 0.731158 -2.81993
LeftShoulder1  2.09682 -6.83615 -13.2922
LeftArm  -44.1687 -62.6579 -15.0985
LeftForeArm  6.14013 -4.13105 -12.661
LeftHand  0.565549 0.170871 -12.6662
RightShoulder  10.1897 27.8147 26.1598
RightArm  -29.3365 24.7738 8.27314
RightForeArm  -43.1461 38.0779 10.7968
RightHand  0.0240798 -5.07093 27.4927
LeftUpLeg  -29.0971 16.3222 -2.69565
LeftLeg  26.2153 -4.64585 -2.13705
LeftFoot  -4.66191 0.257952 -3.94044
LeftToes  5.72949e-011 5.22586e-011 2.45399e-011
206
root  -51.1664 38.2775 -59.4166 -164.581 -64.8094 173.638
RightUpLeg  -37.3408 5.95492 -13.3581
RightLeg  42.1726 -12.7297 -12.3356
RightFoot  3.13183 -0.714153 5.7877
RightToes  -5.8209e-011 0 -3.6325e-017
Spine  18.1111 -2.11096 -5.2683
Spine1  2.20853 -3.71437 4.85806
HEad  -10.1668 1.84777 -3.10335
LeftShoulder1  2.03372 -7.12059 -12.037
LeftArm  -47.7894 -63.0391 -11.6787
LeftForeArm  3.05025 -2.93577 -12.2874
LeftHand  0.651467 0.432888 -15.3773
RightShoulder  10.149 28.3222 25.4721
RightArm  -31.222 25.5713 8.13688
RightForeArm  -42.6448 39.9828 11.4414
RightHand  -0.0870324 -5.50899 27.9353
LeftUpLeg  -29.718 17.114 -3.63982
LeftLeg  25.6547 -5.12101 -2.32766
LeftFoot  -4.52483 0.210768 -3.08265
LeftToes  5.72949e-011 5.22586e-011 2.45399e-011
207
root  -51.4132 38.3715 -58.9941 -164.268 -64.6747 174.213
RightUpLeg  -37.4937 6.21212 -12.0499
RightLeg  38.219 -10.638 -9.11616
RightFoot  0.302821 -1.05034 10.2951
RightToes  -5.8209e-011 0 -3.6325e-017
Spine  18.201 -2.06463 -5.51035
Spine1  2.43819 -3.65581 5.04257
HEad  -10.6763 2.45226 -2.92214
LeftShoulder1  1.98754 -7.3375 -11.1404
LeftArm  -49.0721 -63.292 -9.24817
LeftForeArm  -0.29523 -2.60199 -12.4391
LeftHand  0.730343 0.662851 -18.0773
RightShoulder  10.217 28.6142 25.3814
RightArm  -32.925 26.079 7.81895
RightForeArm  -41.4533 42.1834 12.2218
RightHand  -0.167456 -5.83363 27.4279
LeftUpLeg  -30.3416 17.7286 -4.64693
LeftLeg  25.1057 -5.6274 -2.52273
LeftFoot  -4.3047 0.175877 -2.43989
LeftToes  5.72949e-011 5.22586e-011 2.45399e-011
208
root  -51.6301 38.5287 -58.6498 -164.278 -64.5816 175.14
RightUpLeg  -36.723 7.5647 -10.8282
RightLeg  32.8045 -11.8814 -8.36606
RightFoot  -2.23901 -0.961006 11.8409
RightToes  -5.8209e-011 0 -3.6325e-017
Spine  18.1786 -2.03003 -5.53731
Spine1  2.64978 -3.67535 5.31654
HEad  -11.1125 2.82998 -2.61585
LeftShoulder1  1.96876 -7.46012 -10.7225
LeftArm  -48.0805 -62.8464 -7.60346
LeftForeArm  -2.6995 -3.95995 -13.1061
LeftHand  0.888665 0.300882 -20.288
RightShoulder  10.4137 28.9983 25.6072
RightArm  -33.5799 26.2266 7.95097
RightForeArm  -38.9318 43.4223 12.6274
RightHand  -0.217477 -6.07231 26.0767
LeftUpLeg  -30.5562 18.328 -5.38002
LeftLeg  23.7317 -6.08329 -2.57656
LeftFoot  -3.75633 0.143448 -1.82334
LeftToes  5.72949e-011 5.22586e-011 2.45399e-011
209
root  -51.8358 38.6802 -58.3903 -164.022 -64.7384 175.818
RightUpLeg  -35.3453 8.99449 -9.87004
RightLeg  26.5438 -13.7845 -7.58669
RightFoot  -3.58929 -0.777063 11.0743
RightToes  -5.8209e-011 0 -3.6325e-017
Spine  17.9756 -2.10873 -5.47748
Spine1  2.91037 -3.80665 5.45
HEad  -11.3878 3.32348 -2.41159
LeftShoulder1  1.98317 -7.46834 -10.8535
LeftArm  -43.8128 -62.1309 -6.57291
LeftForeArm  -7.02042 -7.51341 -13.404
LeftHand  1.07539 -0.236048 -22.0509
RightShoulder  10.6563 29.0053 26.3731
RightArm  -33.33 25.9497 8.50868
RightForeArm  -39.461 45.04 13.3193
RightHand  -0.294367 -6.4588 24.6627
LeftUpLeg  -30.7384 18.7204 -6.04753
LeftLeg  22.2751 -6.67149 -2.65602
LeftFoot  -3.10942 0.111683 -1.30339
LeftToes  5.72949e-011 5.22586e-011 2.45399e-011
210
root  -52.0291 38.7726 -58.2227 -163.193 -65.2696 175.771
RightUpLeg  -33.6298 9.24985 -8.76269
RightLeg  20.3157 -13.2438 -5.56602
RightFoot  -2.971 -0.855109 11.3729
RightToes  -5.8209e-011 0 -3.6325e-017
Spine  17.7918 -2.14858 -5.46136
Spine1  3.06814 -3.86379 5.47277
HEad  -11.6663 3.30411 -2.38457
LeftShoulder1  1.97834 -7.38225 -10.9629
LeftArm  -34.8316 -61.7619 -7.29883
LeftForeArm  -15.4272 -12.6317 -12.3981
LeftHand  1.19067 -0.528738 -23.1268
RightShoulder  10.8078 28.413 27.5099
RightArm  -32.2731 25.4868 8.74538
RightForeArm  -37.9224 47.2587 14.2629
RightHand  -0.326966 -6.6573 23.6971
LeftUpLeg  -30.9123 18.4318 -6.64774
LeftLeg  21.1609 -7.0032 -2.7013
LeftFoot  -2.65602 0.0866478 -0.924809
LeftToes  5.72949e-011 5.22586e-011 2.45399e-011
211
root  -52.1549 38.9687 -58.0756 -163.244 -65.6902 176.706
RightUpLeg  -33.0799 10.335 -7.64313
RightLeg  16.4333 -8.05482 -3.24135
RightFoot  0.721221 -0.460467 4.4017
RightToes  -5.8209e-011 0 -3.6325e-017
Spine  17.8649 -1.87682 -4.79022
Spine1  3.04954 -3.82805 5.92177
HEad  -11.8758 3.58548 -2.8105
LeftShoulder1  2.00001 -7.37798 -11.1919
LeftArm  -20.4923 -61.2093 -8.94149
LeftForeArm  -22.8904 -18.2008 -9.6701
LeftHand  1.25163 -1.04522 -22.3027
RightShoulder  10.7908 27.846 28.1022
RightArm  -30.1574 24.9471 9.32493
RightForeArm  -35.5847 49.105 15.0783
RightHand  -0.349142 -6.7814 23.3521
LeftUpLeg  -30.5791 17.966 -6.58018
LeftLeg  18.9139 -6.96623 -2.58599
LeftFoot  -1.60357 0.072284 -0.731908
LeftToes  5.72949e-011 5.22586e-011 2.45399e-011
212
root  -52.2339 39.0232 -58.0131 -162.667 -65.9134 176.852
RightUpLeg  -33.4588 14.5944 -9.39139
RightLeg  15.3056 -10.3051 -4.41515
RightFoot  1.30117 -0.70676 6.4531
RightToes  -5.8209e-011 0 -3.6325e-017
Spine  18.0132 -1.79228 -4.62668
Spine1  3.06609 -3.56383 5.47373
HEad  -12.7185 4.0406 -3.28808
LeftShoulder1  2.02723 -7.29787 -11.6226
LeftArm  -12.9559 -59.8024 -9.30757
LeftForeArm  -28.8963 -22.58 -6.81459
LeftHand  1.23475 -0.934771 -22.3994
RightShoulder  11.0383 27.8301 28.9287
RightArm  -29.5015 24.3918 9.8282
RightForeArm  -35.6362 50.9062 16.0411
RightHand  -0.417011 -7.15232 22.6833
LeftUpLeg  -30.7404 16.8848 -6.28673
LeftLeg  18.0653 -6.10583 -2.66195
LeftFoot  -1.21239 0.0647965 -0.648775
LeftToes  5.72949e-011 5.22586e-011 2.45399e-011
213
root  -52.2905 39.0964 -58.0098 -162.073 -65.9319 176.906
RightUpLeg  -33.3464 13.8177 -9.06336
RightLeg  14.1302 -9.74617 -4.41338
RightFoot  1.62234 -0.793743 7.07479
RightToes  -5.8209e-011 0 -3.6325e-017
Spine  18.0664 -1.81511 -4.50596
Spine1  3.30695 -3.28348 4.5928
HEad  -13.5516 4.6037 -3.51591
LeftShoulder1  2.047 -6.99728 -12.4254
LeftArm  -12.497 -58.2109 -8.33923
LeftForeArm  -30.3479 -25.2126 -6.7641
LeftHand  1.22138 -0.68703 -23.0811
RightShoulder  11.4989 28.0727 30.1295
RightArm  -29.107 23.8191 10.0184
RightForeArm  -33.4916 51.5087 16.2897
RightHand  -0.339681 -6.81148 22.2172
LeftUpLeg  -30.4165 15.1625 -5.28877
LeftLeg  16.7075 -4.19048 -3.02657
LeftFoot  -0.677695 0.0556228 -0.552311
LeftToes  5.72949e-011 5.22586e-011 2.45399e-011
214
root  -52.3328 39.1871 -58.0591 -161.552 -66.236 176.988
RightUpLeg  -32.618 9.50175 -7.08397
RightLeg  12.5318 -5.88962 -3.4188
RightFoot  1.75195 -0.806049 7.1189
RightToes  -5.8209e-011 0 -3.6325e-017
Spine  18.1179 -1.79842 -4.55583
Spine1  3.25384 -3.18923 4.37413
HEad  -13.6202 5.88459 -4.30983
LeftShoulder1  2.03831 -6.47661 -13.4509
LeftArm  -12.251 -56.5619 -9.12258
LeftForeArm  -29.7145 -28.014 -7.42441
LeftHand  1.04733 0.14098 -23.0662
RightShoulder  11.8538 27.9808 31.3787
RightArm  -27.3654 23.1794 10.5594
RightForeArm  -31.9301 52.6692 16.903
RightHand  -0.284452 -6.62612 20.7861
LeftUpLeg  -29.8125 13.2623 -3.95963
LeftLeg  14.8867 -2.2158 -3.699
LeftFoot  0.00807088 0.0366689 -0.369619
LeftToes  5.72949e-011 5.22586e-011 2.45399e-011
215
root  -52.3828 39.2847 -58.1746 -160.55 -67.0521 176.513
RightUpLeg  -31.809 5.22445 -5.5038
RightLeg  10.8642 -3.6231 -2.76347
RightFoot  1.76226 -0.856291 7.54975
RightToes  -5.8209e-011 0 -3.6325e-017
Spine  17.9079 -1.73136 -4.4727
Spine1  3.2491 -3.06886 4.27195
HEad  -13.3742 7.43875 -5.47306
LeftShoulder1  2.08574 -6.25381 -14.4976
LeftArm  -11.9627 -55.3861 -11.0221
LeftForeArm  -29.5415 -29.82 -7.88186
LeftHand  0.976222 0.479363 -23.0597
RightShoulder  12.0233 27.3154 32.7669
RightArm  -25.3469 22.3219 11.0056
RightForeArm  -30.5647 54.1301 17.7594
RightHand  -0.215276 -6.37768 18.5788
LeftUpLeg  -28.928 10.1825 -2.35063
LeftLeg  12.5189 0.471681 -4.32065
LeftFoot  0.957846 0.0239268 -0.275908
LeftToes  5.72949e-011 5.22586e-011 2.45399e-011
216
root  -52.434 39.402 -58.3581 -159.498 -68.2265 175.785
RightUpLeg  -30.9678 2.86801 -4.6941
RightLeg  9.43517 -3.40507 -2.6453
RightFoot  1.57411 -0.860802 7.68876
RightToes  -5.8209e-011 0 -3.6325e-017
Spine  17.5714 -1.6435 -4.18
Spine1  3.60074 -2.92508 4.04449
HEad  -13.5802 9.12709 -6.78479
LeftShoulder1  2.14749 -6.20935 -15.3011
LeftArm  -11.6063 -54.5622 -13.2082
LeftForeArm  -27.9673 -31.5073 -8.27218
LeftHand  0.930985 0.576366 -22.4763
RightShoulder  12.0774 26.4381 34.1116
RightArm  -23.8627 21.2266 11.4918
RightForeArm  -29.1298 55.2361 18.4348
RightHand  -0.123004 -5.88368 17.0615
LeftUpLeg  -27.7872 7.28538 -0.972536
LeftLeg  9.81141 2.39958 -4.81545
LeftFoot  2.07776 0.0583971 -0.603478
LeftToes  5.72949e-011 5.22586e-011 2.45399e-011
